<svg viewBox="0 0 16 16" width="16" height="16" xmlns="http://www.w3.org/2000/svg" fill="#858585" fill-opacity="1">
  <path d="M2 0 12 0Q16 0 16 4L16 10Q16 11.25 15 11.75L15 11Q15 10 14 10L13 10Q12 10 12 11L12 12 2 12Q0 12 0 10L0 2Q0 0 2 0M1 2 1 10Q1 11 2 11L6 5Q7 3.5 8 5L9.5 7.5 9 7Q10 5.75 11 7L13 10 14 10Q15 10 15 11L15 5 12 5Q11 5 11 4L11 1 2 1Q1 1 1 2M4 2A1 1 0 004 5 1 1 0 004 2M13 11 14 11 14 13 16 13 16 14 14 14 14 16 13 16 13 14 11 14 11 13 13 13 13 11M3.25 11 11 11Q11 10 11.5 9.75L10 7.5Q9 8.75 8 7L7 5.5 3.25 11"></path>
</svg>
