<svg height="316.227766" viewBox="0 0 41.348941 41.215849" width="316.227766" xmlns="http://www.w3.org/2000/svg" fill="#858585" fill-opacity="1"><path d="m-396.54072 192.24331c-.10625-1.69125-1.405-2.97125-3.12625-3.0725-1.8975-.1125-8.04-.2075-9.80875-.2075 3.1575 2.17625 3.58875 6.27875 3.88625 13.89625.17375 4.51375.0175 20.32875.005 21.00125l-.0825 4.3125-16.58875-16.5925v-5.19125l13.18875 13.19375c.0375-2.6125.0687-6.01625.0687-9.13 0-3.0325-.0425-5.7775-.13-7.22375-.4975-8.30375-1.27-12.1925-5.605-13.71875-1.32375-.46625-2.56-.57625-4.62-.60375-1.70375-.0225-13.55625-.0113-15.27.0813-1.8175.0962-3.03875 1.41625-3.1225 3.12-.0825 1.68-.1075 33.0325 0 34.74.10875 1.69 1.405 2.97125 3.1225 3.0725 1.9025.11375 8.04375.1275 9.81.1275-3.15625-2.17875-3.58625-6.27625-3.88625-13.89625-.17125-4.51125-.0125-20.33-.001-21l.0825-4.3125 16.59 16.59125v5.19l-13.1925-13.1925c-.0337 2.61125-.0675 6.0175-.0675 9.12875 0 3.035.045 5.78125.13 7.225.4975 8.3025 1.27 12.19125 5.60375 13.7175 1.32625.4675 2.56375.5775 4.6225.605 1.7.0188 13.5575.0113 15.265-.0788 1.82125-.1 3.0425-1.41875 3.12625-3.12125.0813-1.6825.11-32.95375 0-34.66125" transform="translate(437.81733 -188.89713)"/></svg>
