<svg viewBox="0 0 16 16" width="16" height="16" xmlns="http://www.w3.org/2000/svg" fill="#858585" fill-opacity="1">
  <path d="M 3 0 L 13 0 Q 16 0 16 3 L 16 13 Q 16 16 13 16 L 3 16 Q 0 16 0 13 L 0 3 Q 0 0 3 0 M 1 6 L 1 10 L 0 10 L 0 11 L 1 11 L 1 13 Q 1 15 3 15 L 5 15 L 5 16 L 6 16 L 6 15 L 10 15 L 10 16 L 11 16 L 11 15 L 13 15 Q 15 15 15 13 L 15 11 L 16 11 L 16 10 L 15 10 L 15 6 L 16 6 L 16 5 L 15 5 L 15 3 Q 15 1 13 1 L 11 1 L 11 0 L 10 0 L 10 1 L 6 1 L 6 0 L 5 0 L 5 1 L 3 1 Q 1 1 1 3 L 1 5 L 0 5 L 0 6 L 1 6"></path>
</svg>
