<?xml version="1.0" encoding="UTF-8" standalone="no"?>
<svg
   viewBox="0 -5.5 28 28"
   width="28"
   height="28"
   version="1.1"
   id="svg23"
   sodipodi:docname="wos_sync.svg"
   inkscape:version="1.1.2 (0a00cf5339, 2022-02-04)"
   xmlns:inkscape="http://www.inkscape.org/namespaces/inkscape"
   xmlns:sodipodi="http://sodipodi.sourceforge.net/DTD/sodipodi-0.dtd"
   xmlns="http://www.w3.org/2000/svg"
   xmlns:svg="http://www.w3.org/2000/svg">
  <defs
     id="defs27">
    <filter
       style="color-interpolation-filters:sRGB;"
       inkscape:label="Drop Shadow"
       id="filter39"
       x="-0.3"
       y="-0.3"
       width="1.6"
       height="1.725">
      <feFlood
         flood-opacity="0.12549"
         flood-color="rgb(0,0,0)"
         result="flood"
         id="feFlood29" />
      <feComposite
         in="flood"
         in2="SourceGraphic"
         operator="in"
         result="composite1"
         id="feComposite31" />
      <feGaussianBlur
         in="composite1"
         stdDeviation="0.5"
         result="blur"
         id="feGaussianBlur33" />
      <feOffset
         dx="0"
         dy="0.5"
         result="offset"
         id="feOffset35" />
      <feComposite
         in="SourceGraphic"
         in2="offset"
         operator="over"
         result="composite2"
         id="feComposite37" />
    </filter>
  </defs>
  <sodipodi:namedview
     id="namedview25"
     pagecolor="#ffffff"
     bordercolor="#666666"
     borderopacity="1.0"
     inkscape:pageshadow="2"
     inkscape:pageopacity="0.0"
     inkscape:pagecheckerboard="0"
     showgrid="false"
     inkscape:zoom="22.785714"
     inkscape:cx="13.978056"
     inkscape:cy="14.021944"
     inkscape:window-width="1600"
     inkscape:window-height="823"
     inkscape:window-x="0"
     inkscape:window-y="0"
     inkscape:window-maximized="1"
     inkscape:current-layer="svg23" />
  <linearGradient
     id="g0"
     x1="0%"
     y1="0%"
     x2="100%"
     y2="100%">
    <stop
       offset="0%"
       style="stop-color:#e0e0e0;stop-opacity:1"
       id="stop2" />
    <stop
       offset="100%"
       style="stop-color:#e0e0e0;stop-opacity:1"
       id="stop4" />
  </linearGradient>
  <linearGradient
     id="g1"
     x1="100%"
     y1="0%"
     x2="0%"
     y2="100%">
    <stop
       offset="0%"
       style="stop-color:#858585;stop-opacity:1"
       id="stop5" />
    <stop
       offset="100%"
       style="stop-color:#858585;stop-opacity:1"
       id="stop7" />
  </linearGradient>
  <linearGradient
     id="g2"
     x1="0%"
     y1="0%"
     x2="100%"
     y2="100%">
    <stop
       offset="0%"
       style="stop-color:#303030;stop-opacity:1"
       id="stop10" />
    <stop
       offset="100%"
       style="stop-color:#303030;stop-opacity:1"
       id="stop12" />
  </linearGradient>
  <path
     d="M1 0 5.25 0Q6 0 6.5 1L13.5 15Q14 16 13 16L8.75 16Q8 16 7.5 15L.5 1Q0 0 1 0"
     fill="url(#g0)"
     id="path15" />
  <path
     d="M11 4 15.25 4Q16.125 4 16.6 5L21.5 15Q22 16 21 16L16.75 16Q16 16 15.5 15L10.5 5Q10 4 11 4"
     fill="url(#g0)"
     id="path17" />
  <path
     d="M22.5 11 27.5 1Q28 0 27 0L22.75 0Q22 0 21.5 1L16.5 11Q16 12 17 12L21 12Q22 12 22.5 11"
     fill="url(#g1)"
     id="path19" />
  <path
     d="M18.0353 7.9292 20.03 12 17 12Q16 12 16.5 11L18.0353 7.9292"
     fill="url(#g2)"
     id="path21"
     style="filter:url(#filter39)" />
</svg>
