<svg viewBox="0 0 16 16" width="16" height="16" xmlns="http://www.w3.org/2000/svg" fill="#858585" fill-opacity="1">
  <style>
    .ac-color {
      fill: #858585;
    }
    .ac-color1 {
      fill: #c00040;
    }
  </style>
  <path d="M5 3A1 1 0 0111 3L11 5 6 10.25Q5 9.75 5 8L5 3M6 3 6 8Q6 9 6.5 9.25L10 6 10 3A1 1 0 006 3M3 8 4 8A1 1 0 0012 8L13 8Q13 12 8.5 13L8.5 15 11 15 11 16 5 16 5 15 7.5 15 7.5 13Q3 12 3 8M0 15.25 15.25 0 16 .75.75 16 0 15.25M11 7 11 8Q11 11 8 11 7.5 11 7 11L8 10Q10 10 10 8L11 7"></path>
</svg>
