<svg viewBox="0 0 16 16" width="16" height="16" xmlns="http://www.w3.org/2000/svg" fill="#858585" fill-opacity="1">
  <path d="M 3 1 A 1 1 0 0 0 3 5 A 1 1 0 0 0 3 1 M 8 1 A 1 1 0 0 0 8 5 A 1 1 0 0 0 8 1 M 13 1 A 1 1 0 0 0 13 5 A 1 1 0 0 0 13 1 M 3 6 A 1 1 0 0 0 3 10 A 1 1 0 0 0 3 6 M 8 6 A 1 1 0 0 0 8 10 A 1 1 0 0 0 8 6 M 13 6 A 1 1 0 0 0 13 10 A 1 1 0 0 0 13 6 M 3 11 A 1 1 0 0 0 3 15 A 1 1 0 0 0 3 11 M 8 11 A 1 1 0 0 0 8 15 A 1 1 0 0 0 8 11 M 13 11 A 1 1 0 0 0 13 15 A 1 1 0 0 0 13 11 M 3 2 A 1 1 0 0 1 3 4 A 1 1 0 0 1 3 2 M 8 2 A 1 1 0 0 1 8 4 A 1 1 0 0 1 8 2 M 13 2 A 1 1 0 0 1 13 4 A 1 1 0 0 1 13 2 M 3 7 A 1 1 0 0 1 3 9 A 1 1 0 0 1 3 7 M 8 7 A 1 1 0 0 1 8 9 A 1 1 0 0 1 8 7 M 13 7 A 1 1 0 0 1 13 9 A 1 1 0 0 1 13 7 M 3 12 A 1 1 0 0 1 3 14 A 1 1 0 0 1 3 12 M 8 12 A 1 1 0 0 1 8 14 A 1 1 0 0 1 8 12 M 13 12 A 1 1 0 0 1 13 14 A 1 1 0 0 1 13 12"></path>
</svg>
