<svg viewBox="0 0 16 16" width="16" height="16" xmlns="http://www.w3.org/2000/svg" fill="#858585" fill-opacity="1">
  <path d="M 3 3 A 1 1 0 0 0 3 9 A 1 1 0 0 0 3 3 M 3 4 A 1 1 0 0 1 3 8 A 1 1 0 0 1 3 4 M 8 9 A 1 1 0 0 0 8 15 A 1 1 0 0 0 8 9 M 10 12 A 1 1 0 0 1 6 12 Q 6 10.75 8 9 Q 10 10.75 10 12 M 13 3 A 1 1 0 0 0 13 9 A 1 1 0 0 0 13 3 M 13 4 A 1 1 0 0 1 13 8 A 1 1 0 0 1 13 4 M 5 3.775 L 5 5.25 L 7.925 9 L 10.225 10 L 5 3.775 M 11 3.775 L 5.775 10 L 7.975 9 L 11 5.25 L 11 3.775 M 5 2 L 8 5 L 11 2 L 10.25 1.25 L 8 3.5 L 5.75 1.25 L 5 2"></path>
</svg>
