<svg viewBox="0 0 16 16" width="16" height="16" xmlns="http://www.w3.org/2000/svg" fill="context-fill" fill-opacity="context-fill-opacity">
  <path d="M2 4 3 4Q4 4 4 3L4 2Q4 0 6 0 8 0 8 2L8 3Q8 4 9 4L10 4Q12 4 12 6L12 7Q12 8 13 8L14 8Q16 8 16 10 16 12 14 12L13 12Q12 12 12 13L12 14Q12 16 10 16L2 16Q0 16 0 14L0 13Q0 11 2 11L3 11Q4 11 4 10 4 9 3 9L2 9Q0 9 0 7L0 6Q0 4 2 4M1 6 1 7Q1 8 2 8L3 8Q5 8 5 10 5 12 3 12L2 12Q1 12 1 13L1 14Q1 15 2 15L10 15Q11 15 11 14L11 13Q11 11 13 11L14 11Q15 11 15 10 15 9 14 9L13 9Q11 9 11 7L11 6Q11 5 10 5L9 5Q7 5 7 3L7 2Q7 1 6 1 5 1 5 2L5 3Q5 5 3 5L2 5Q1 5 1 6"></path>
</svg>
