<svg viewBox="0 0 16 16" width="16" height="16" xmlns="http://www.w3.org/2000/svg" fill="context-fill" fill-opacity="context-fill-opacity">
  <style>
    .ac-color {
      fill: #858585;
    }
    .ac-color1 {
      fill: #c00040;
    }
  </style>
  <path d="M7 0 9 0 9 1 7 1 7 0M0 15.25 15.25 0 16 .75.75 16 0 15.25M3 7Q3 2 8 2 11.5 2 12.5 4L11.625 4.75Q11 3 8 3 4 3 4 7L4 12 3 13 2 14 2 13 3 13 3 7M13 7 13 13 14 13 14 14 4 14 5 13 12 13 12 7Q12 6.5 11.9 6L12.75 5.25Q13 6 13 7M6 15 10 15 10 16 6 16 6 15"></path>
</svg>
