<svg viewBox="0 0 16 16" width="16" height="16" xmlns="http://www.w3.org/2000/svg" fill="context-fill" fill-opacity="context-fill-opacity">
  <path d="M 0 3 Q 0 0 3 0 L 13 0 Q 16 0 16 3 L 16 13 Q 16 16 13 16 L 3 16 Q 0 16 0 13 L 0 3 M 3 1 Q 1 1 1 3 L 1 4 L 15 4 L 15 3 Q 15 1 13 1 L 3 1 M 1 5 L 1 13 Q 1 15 3 15 L 6 15 L 6 5 L 1 5 M 7 5 L 7 15 L 13 15 Q 15 15 15 13 L 15 5 L 7 5 M 2 7 L 5 7 L 5 8 L 2 8 L 2 7 M 2 9 L 5 9 L 5 10 L 2 10 L 2 9 M 2 11 L 4 11 L 4 12 L 2 12 L 2 11 M 8 7 L 14 7 L 14 11 L 8 11 L 8 7 M 8 12 L 13 12 L 13 13 L 8 13 L 8 12 M 13 2 L 13 3 L 14 3 L 14 2 L 13 2 M 12 2 L 11 2 L 11 3 L 12 3 L 12 2 M 9 2 L 9 3 L 10 3 L 10 2 L 9 2"></path>
</svg>
