<svg viewBox="0 0 16 16" width="16" height="16" xmlns="http://www.w3.org/2000/svg" fill="context-fill" fill-opacity="context-fill-opacity">
  <path d="M3 12Q8 9 13 12L12.5 12.75Q8 10 3.5 12.75L3 12M10 2 13 2Q16 2 16 5L16 13Q16 16 13 16L3 16Q0 16 0 13L0 3Q0 0 3 0L6 0C9 0 8 2 10 2M1 3 1 13Q1 15 3 15L13 15Q15 15 15 13L15 5Q15 3 13 3L10 3C7 3 8 1 6 1L3 1Q1 1 1 3M3.75 5 5 6.25 6.25 5 7 5.75 5.75 7 7 8.25 6.25 9 5 7.75 3.75 9 3 8.25 4.25 7 3 5.75 3.75 5M9.75 5 11 6.25 12.25 5 13 5.75 11.75 7 13 8.25 12.25 9 11 7.75 9.75 9 9 8.25 10.25 7 9 5.75 9.75 5"></path>
</svg>
