<svg viewBox="0 0 16 16" width="16" height="16" xmlns="http://www.w3.org/2000/svg" fill="context-fill" fill-opacity="context-fill-opacity">
  <path d="M2 5 4 6 12 6 14 5 14.5 6 12 7.25 12 9 15 9 15 10 12 10 12 11.75 14.5 13 14 14 12 13Q12 16 8 16 4 16 4 13L2 14 1.4 13 4 11.75 4 10 1 10 1 9 4 9 4 7.25 1.5 6 2 5M4 5Q4 2 8 2 12 2 12 5L4 5M5 0 6 3 5 3.375 4 .375 5 0M11 0 12 .375 11 3.375 10 3 11 0M6 9 6 10 10 10 10 9 6 9M6 12 6 13 10 13 10 12 6 12M5 7 5 13Q5 15 8 15 11 15 11 13L11 7 5 7"></path>
</svg>
