<svg viewBox="0 0 16 16" width="16" height="16" xmlns="http://www.w3.org/2000/svg" fill="context-fill" fill-opacity="context-fill-opacity">
  <path d="M 5 0 L 11 0 Q 12 0 12 1 L 12 3 Q 12 5 10 5 L 6 5 Q 4 5 4 3 L 4 1 Q 4 0 5 0 M 5 1 L 5 3 Q 5 4 6 4 L 10 4 Q 11 4 11 3 L 11 1 L 5 1 M 5 4 L 6 4 L 6 14 Q 6 15 7 15 L 9 15 Q 10 15 10 14 L 10 4 L 11 4 L 11 14 Q 11 16 9 16 L 7 16 Q 5 16 5 14 L 5 4 M 7 7 A 1 1 0 0 1 9 7 A 1 1 0 0 1 7 7 M 7.5 7 L 8.5 7 L 8.5 9 L 7.5 9 L 7.5 7 M 6 12 L 10 12 L 10 13 L 6 13 L 6 12"></path>
</svg>
