<svg viewBox="0 0 16 16" width="16" height="16" xmlns="http://www.w3.org/2000/svg" fill="context-fill" fill-opacity="context-fill-opacity">
  <path d="M1 2A1 1 0 001 4L2 4A1 1 0 002 2L1 2M5 2A1 1 0 005 4 1 1 0 005 2M8 2A1 1 0 008 4 1 1 0 008 2M11 2A1 1 0 0011 4 1 1 0 0011 2M14 2A1 1 0 0014 4L15 4A1 1 0 0015 2L14 2M1 5A1 1 0 001 7L3 7A1 1 0 003 5L1 5M6 5A1 1 0 006 7 1 1 0 006 5M9 5A1 1 0 009 7 1 1 0 009 5M12 5A1 1 0 0012 7 1 1 0 0012 5M1 8A1 1 0 001 10L4 10A1 1 0 004 8L1 8M7 8A1 1 0 007 10 1 1 0 007 8M10 8A1 1 0 0010 10 1 1 0 0010 8M13 8A1 1 0 0013 10L15 10A1 1 0 0015 8L13 8M1 11A1 1 0 001 13L2 13A1 1 0 002 11L1 11M5 11A1 1 0 005 13L11 13A1 1 0 0011 11L5 11M14 11A1 1 0 0014 13L15 13A1 1 0 0015 11L14 11M15 5A1 1 0 0015 7 1 1 0 0015 5"></path>
</svg>
