<svg viewBox="0 0 16 16" width="16" height="16" xmlns="http://www.w3.org/2000/svg" fill="context-fill" fill-opacity="context-fill-opacity">
  <path d="M16 13 0 13 0 14 16 14 16 13M9.5 2 9.5 12 10.5 12 12.5 12Q15.5 12 15.5 9.5 15.5 7.5 14 7 15.5 6.5 15.5 4.5 15.5 2 12.5 2L9.5 2M10.5 7.5 12.5 7.5Q14.5 7.5 14.5 9.5 14.5 11 12.5 11L10.5 11 10.5 7.5M.5 12 4.5 2 8.5 12 7.25 12 6.5 10 2.5 10 1.75 12 .5 12M2.75 9 6.25 9 4.5 4.75 2.75 9M10.5 3 12.5 3Q14.5 3 14.5 4.5 14.5 6.5 12.5 6.5L10.5 6.5 10.5 3"></path>
</svg>
