<svg viewBox="0 0 16 16" width="16" height="16" xmlns="http://www.w3.org/2000/svg" fill="context-fill" fill-opacity="context-fill-opacity">
  <path d="M2 0 5 0Q7 0 7 2L7 5Q7 7 5 7L2 7Q0 7 0 5L0 2Q0 0 2 0M1 2 1 5Q1 6 2 6L5 6Q6 6 6 5L6 2Q6 1 5 1L2 1Q1 1 1 2M2 2 5 2 5 5 2 5 2 2M2 9 5 9Q7 9 7 11L7 14Q7 16 5 16L2 16Q0 16 0 14L0 11Q0 9 2 9M1 11 1 14Q1 15 2 15L5 15Q6 15 6 14L6 11Q6 10 5 10L2 10Q1 10 1 11M2 11 5 11 5 14 2 14 2 11M11 0 14 0Q16 0 16 2L16 5Q16 7 14 7L11 7Q9 7 9 5L9 2Q9 0 11 0M10 2 10 5Q10 6 11 6L14 6Q15 6 15 5L15 2Q15 1 14 1L11 1Q10 1 10 2M11 2 14 2 14 5 11 5 11 2M11 10 14 10Q15 10 15 11L15 14Q15 15 14 15L11 15Q10 15 10 14L10 11Q10 10 11 10M11 11 11 14 14 14 14 11 11 11"></path>
</svg>
