<svg viewBox="0 0 16 16" width="16" height="16" xmlns="http://www.w3.org/2000/svg" fill="context-fill" fill-opacity="context-fill-opacity">
  <path d="M2 1 5 1Q7 1 7 3L7 6Q7 8 5 8L2 8Q0 8 0 6L0 3Q0 1 2 1M1 3 1 6Q1 7 2 7L5 7Q6 7 6 6L6 3Q6 2 5 2L2 2Q1 2 1 3M2 9 5 9Q7 9 7 11L7 14Q7 16 5 16L2 16Q0 16 0 14L0 11Q0 9 2 9M1 11 1 14Q1 15 2 15L5 15Q6 15 6 14L6 11Q6 10 5 10L2 10Q1 10 1 11M10 9 13 9Q15 9 15 11L15 14Q15 16 13 16L10 16Q8 16 8 14L8 11Q8 9 10 9M9 11 9 14Q9 15 10 15L13 15Q14 15 14 14L14 11Q14 10 13 10L10 10Q9 10 9 11M8.75 2.75 10.75.75Q12-.5 13.25.75L15.25 2.75Q16.5 4 15.25 5.25L13.25 7.25Q12 8.5 10.75 7.25L8.75 5.25Q7.5 4 8.75 2.75"></path>
</svg>
