<svg viewBox="0 0 16 16" width="16" height="16" xmlns="http://www.w3.org/2000/svg" fill="context-fill" fill-opacity="context-fill-opacity">
  <path d="M 5 0 L 11 0 Q 13 0 13 2 L 13 6 L 3 6 L 3 2 Q 3 0 5 0 M 4 2 L 4 6 L 12 6 L 12 2 Q 12 1 11 1 L 10 3 L 10 1 L 5 1 Q 4 1 4 2 M 3 6 L 13 6 Q 14 6 14 7 L 14 9 Q 14 11 12 11 L 11 11 Q 10 11 10 12 L 10 14 Q 10 16 8 16 Q 6 16 6 14 L 6 12 Q 6 11 5 11 L 4 11 Q 2 11 2 9 L 2 7 Q 2 6 3 6 M 3 7 L 3 9 Q 3 10 4 10 L 5 10 Q 7 10 7 12 L 7 14 Q 7 15 8 15 Q 9 15 9 14 L 9 12 Q 9 10 11 10 L 12 10 Q 13 10 13 9 L 13 7 L 3 7"></path>
</svg>
