<svg viewBox="0 0 16 16" width="16" height="16" xmlns="http://www.w3.org/2000/svg" fill="context-fill" fill-opacity="context-fill-opacity">
  <path d="M8 13A1 1 0 008 16 1 1 0 008 13M5 13Q6 11 8 11 10 11 11 13L11.75 12.5Q10.5 10 8 10 5.5 10 4.25 12.5L5 13M2 10.5Q4 7 8 7 12 7 14 10.5L13.25 11Q11.5 8 8 8 4.5 8 2.75 11L2 10.5M0 8.5Q3 4 8 4 13 4 16 8.5L15.25 9Q12.5 5 8 5 3.5 5 .75 9L0 8.5"></path>
  <path d="M12.5 1 13.5 1 13.5 3 12.5 3 12.5 1M12.5 4 13.5 4 13.5 5 12.5 5 12.5 4M13 0A1 1 0 0013 6 1 1 0 0013 0"></path>
</svg>
