<svg viewBox="0 0 16 16" width="16" height="16" xmlns="http://www.w3.org/2000/svg" fill="context-fill" fill-opacity="context-fill-opacity">
  <path d="M3 1 13 1Q16 1 16 4L16 12Q16 15 13 15L3 15Q0 15 0 12L0 4Q0 1 3 1M3 2Q1 2 1 4L1 5 15 5 15 4Q15 2 13 2L3 2M1 6 1 12Q1 14 3 14L13 14Q15 14 15 12L15 6 1 6M3 0 4 0 4 3 3 3 3 0M12 0 13 0 13 3 12 3 12 0M4 7 6 7 6 13 5 13 5 8 4 8 4 7M8 7 10 7Q12 7 12 8.75 12 10 11 10 12 10 12 11.25 12 13 10 13L9 13Q7 13 7 11L8 11Q8 12 9 12L10 12Q11 12 11 11.25 11 10.5 10 10.5L9 10.5 9 9.5 10 9.5Q11 9.5 11 8.75 11 8 10 8L9 8Q8 8 8 9L8 9 7 9Q7 7 9 7"></path>
</svg>
