<?xml version="1.0" encoding="UTF-8" standalone="no"?>
<svg
   xmlns:dc="http://purl.org/dc/elements/1.1/"
   xmlns:cc="http://creativecommons.org/ns#"
   xmlns:rdf="http://www.w3.org/1999/02/22-rdf-syntax-ns#"
   xmlns:svg="http://www.w3.org/2000/svg"
   xmlns="http://www.w3.org/2000/svg"
   xmlns:sodipodi="http://sodipodi.sourceforge.net/DTD/sodipodi-0.dtd"
   xmlns:inkscape="http://www.inkscape.org/namespaces/inkscape"
   viewBox="0 0 16 16"
   width="16"
   height="16"
   version="1.1"
   id="svg11"
   sodipodi:docname="weather-cloudy.svg"
   inkscape:version="0.92.5 (2060ec1f9f, 2020-04-08)">
  <metadata
     id="metadata17">
    <rdf:RDF>
      <cc:Work
         rdf:about="">
        <dc:format>image/svg+xml</dc:format>
        <dc:type
           rdf:resource="http://purl.org/dc/dcmitype/StillImage" />
      </cc:Work>
    </rdf:RDF>
  </metadata>
  <defs
     id="defs15">
    <filter
       style="color-interpolation-filters:sRGB;"
       inkscape:label="Drop Shadow"
       id="filter834">
      <feFlood
         flood-opacity="0.247059"
         flood-color="rgb(255,255,255)"
         result="flood"
         id="feFlood824" />
      <feComposite
         in="flood"
         in2="SourceGraphic"
         operator="out"
         result="composite1"
         id="feComposite826" />
      <feGaussianBlur
         in="composite1"
         stdDeviation="0.5"
         result="blur"
         id="feGaussianBlur828" />
      <feOffset
         dx="0"
         dy="0.5"
         result="offset"
         id="feOffset830" />
      <feComposite
         in="offset"
         in2="SourceGraphic"
         operator="atop"
         result="composite2"
         id="feComposite832" />
    </filter>
    <filter
       style="color-interpolation-filters:sRGB;"
       inkscape:label="Drop Shadow"
       id="filter836">
      <feFlood
         flood-opacity="0.247059"
         flood-color="rgb(255,255,255)"
         result="flood"
         id="feFlood824" />
      <feComposite
         in="flood"
         in2="SourceGraphic"
         operator="out"
         result="composite1"
         id="feComposite826" />
      <feGaussianBlur
         in="composite1"
         stdDeviation="0.5"
         result="blur"
         id="feGaussianBlur828" />
      <feOffset
         dx="0"
         dy="0.5"
         result="offset"
         id="feOffset830" />
      <feComposite
         in="offset"
         in2="SourceGraphic"
         operator="atop"
         result="composite2"
         id="feComposite832" />
    </filter>
  </defs>
  <sodipodi:namedview
     pagecolor="#ffffff"
     bordercolor="#666666"
     borderopacity="1"
     objecttolerance="10"
     gridtolerance="10"
     guidetolerance="10"
     inkscape:pageopacity="0"
     inkscape:pageshadow="2"
     inkscape:window-width="826"
     inkscape:window-height="480"
     id="namedview13"
     showgrid="false"
     inkscape:zoom="14.75"
     inkscape:cx="8"
     inkscape:cy="8"
     inkscape:window-x="0"
     inkscape:window-y="0"
     inkscape:window-maximized="0"
     inkscape:current-layer="svg11" />
  <linearGradient
     id="g0"
     x1="0%"
     y1="0%"
     x2="100%"
     y2="100%">
    <stop
       offset="0%"
       style="stop-color:#d0e8ff;stop-opacity:1"
       id="stop2" />
    <stop
       offset="100%"
       style="stop-color:#80c0ff;stop-opacity:1"
       id="stop4" />
  </linearGradient>
  <linearGradient
     id="g1"
     x1="0%"
     y1="0%"
     x2="100%"
     y2="100%">
    <stop
       offset="0%"
       style="stop-color:#e7f1ed;stop-opacity:1"
       id="stop2" />
    <stop
       offset="100%"
       style="stop-color:#a3d7ff;stop-opacity:1"
       id="stop4" />
  </linearGradient>
  <linearGradient
     id="g2"
     x1="0%"
     y1="0%"
     x2="0%"
     y2="100%">
    <stop
       offset="0%"
       style="stop-color:#2080c0;stop-opacity:1"
       id="stop2" />
    <stop
       offset="100%"
       style="stop-color:#1060a0;stop-opacity:1"
       id="stop4" />
  </linearGradient>
  <style
     id="style7">
    .ac-color {
      fill: url(#g0);
    }
    .ac-color1 {
      fill: url(#g1);
    }
    .ac-color2 {
      fill: url(#g2);
    }
  </style>
  <path
     d="M 6 10 L 4 10 Q 0 10 0 6.5 Q 0 4 3 3.5 L 6 3 L 6 10"
     class="ac-color"
     id="path9"
     style="filter:url(#filter834)" />
  <path
     d="M 16 6.5 Q 16 10 12 10 L 7 10 Q 2.5 10 3 6 Q 4 0 8 0 Q 12 0 13 3 Q 16 4 16 6.5"
     class="ac-color1"
     id="path11"
     style="filter:url(#filter834)" />
  <path
     d="M 4 11 L 3 11 Q 2 11 2 12 Q 2 13 3 13 Q 4 13 4 12 L 4 11 M 9 11 L 8 11 Q 7 11 7 12 Q 7 13 8 13 Q 9 13 9 12 L 9 11 M 14 11 L 13 11 Q 12 11 12 12 Q 12 13 13 13 Q 14 13 14 12 L 14 11 M 6 13 L 5 13 Q 4 13 4 14 Q 4 15 5 15 Q 6 15 6 14 L 6 13 M 11 13 L 10 13 Q 9 13 9 14 Q 9 15 10 15 Q 11 15 11 14 L 11 13"
     class="ac-color2"
     style="filter:url(#filter836)" />
</svg>
