<?xml version="1.0" encoding="UTF-8" standalone="no"?>
<svg
   xmlns:dc="http://purl.org/dc/elements/1.1/"
   xmlns:cc="http://creativecommons.org/ns#"
   xmlns:rdf="http://www.w3.org/1999/02/22-rdf-syntax-ns#"
   xmlns:svg="http://www.w3.org/2000/svg"
   xmlns="http://www.w3.org/2000/svg"
   xmlns:sodipodi="http://sodipodi.sourceforge.net/DTD/sodipodi-0.dtd"
   xmlns:inkscape="http://www.inkscape.org/namespaces/inkscape"
   viewBox="0 0 16 16"
   width="16"
   height="16"
   version="1.1"
   id="svg11"
   sodipodi:docname="weather-not-cloudy.svg"
   inkscape:version="0.92.5 (2060ec1f9f, 2020-04-08)">
  <metadata
     id="metadata17">
    <rdf:RDF>
      <cc:Work
         rdf:about="">
        <dc:format>image/svg+xml</dc:format>
        <dc:type
           rdf:resource="http://purl.org/dc/dcmitype/StillImage" />
      </cc:Work>
    </rdf:RDF>
  </metadata>
  <defs
     id="defs15">
    <filter
       style="color-interpolation-filters:sRGB;"
       inkscape:label="Drop Shadow"
       id="filter834">
      <feFlood
         flood-opacity="0.498039"
         flood-color="rgb(255,255,255)"
         result="flood"
         id="feFlood824" />
      <feComposite
         in="flood"
         in2="SourceGraphic"
         operator="out"
         result="composite1"
         id="feComposite826" />
      <feGaussianBlur
         in="composite1"
         stdDeviation="0.5"
         result="blur"
         id="feGaussianBlur828" />
      <feOffset
         dx="0"
         dy="0.5"
         result="offset"
         id="feOffset830" />
      <feComposite
         in="offset"
         in2="SourceGraphic"
         operator="atop"
         result="composite2"
         id="feComposite832" />
    </filter>
  </defs>
  <sodipodi:namedview
     pagecolor="#ffffff"
     bordercolor="#666666"
     borderopacity="1"
     objecttolerance="10"
     gridtolerance="10"
     guidetolerance="10"
     inkscape:pageopacity="0"
     inkscape:pageshadow="2"
     inkscape:window-width="826"
     inkscape:window-height="480"
     id="namedview13"
     showgrid="false"
     inkscape:zoom="14.75"
     inkscape:cx="8"
     inkscape:cy="8"
     inkscape:window-x="0"
     inkscape:window-y="0"
     inkscape:window-maximized="0"
     inkscape:current-layer="svg11" />
  <linearGradient
     id="g0"
     x1="0%"
     y1="0%"
     x2="100%"
     y2="100%">
    <stop
       offset="0%"
       style="stop-color:#ffc050;stop-opacity:1"
       id="stop2" />
    <stop
       offset="100%"
       style="stop-color:#e88020;stop-opacity:1"
       id="stop4" />
  </linearGradient>
  <style
     id="style7">
    .ac-color {
      fill: url(#g0);
    }
  </style>
  <path
     d="M8 3A1 1 0 008 13 1 1 0 008 3M8 0A1 1 0 008 2 1 1 0 008 0M3 2A1 1 0 003 4 1 1 0 003 2M1 7A1 1 0 001 9 1 1 0 001 7M13 2A1 1 0 0013 4 1 1 0 0013 2M15 7A1 1 0 0015 9 1 1 0 0015 7M3 12A1 1 0 003 14 1 1 0 003 12M13 12A1 1 0 0013 14 1 1 0 0013 12M8 14A1 1 0 008 16 1 1 0 008 14"
     class="ac-color"
     id="path9"
     style="filter:url(#filter834)" />
</svg>
