<svg viewBox="0 0 16 16" width="16" height="16" xmlns="http://www.w3.org/2000/svg">
  <style>
    .ac-color {
      fill: #333;
    }
  </style>
  <path d="M 6 0 A 1 1 0 0 0 6 6 A 1 1 0 0 0 6 0 M 6 1 A 1 1 0 0 1 6 5 A 1 1 0 0 1 6 1 M 2 7 L 10 7 Q 12 7 12 9 Q 12 10 11 11 C 8.5 13.6 3.5 13.6 1 11 Q 0 10 0 9 Q 0 7 2 7 M 2 8 Q 1 8 1 9 Q 1 10 2.5 11 C 5 12.25 7 12.25 9.5 11 Q 11 10 11 9 Q 11 8 10 8 L 2 8 M 13 11 L 14 11 L 14 13 L 16 13 L 16 14 L 14 14 L 14 16 L 13 16 L 13 14 L 11 14 L 11 13 L 13 13 L 13 11" class="ac-color"></path>
</svg>
